<svg width="22" height="22" viewBox="0 0 22 22" fill="none" xmlns="http://www.w3.org/2000/svg">
<path fill-rule="evenodd" clip-rule="evenodd" d="M16.0307 14.1129L21.8125 19.8L19.8955 21.6856L14.1136 15.9985C12.6565 17.0474 10.8595 17.6667 8.91549 17.6667C4.04925 17.6667 0.104385 13.7865 0.104385 9.00001C0.104385 4.21354 4.04925 0.333344 8.91549 0.333344C13.7817 0.333344 17.7266 4.21354 17.7266 9.00001C17.7266 10.9121 17.097 12.6797 16.0307 14.1129ZM8.91549 15C12.2844 15 15.0155 12.3137 15.0155 9.00001C15.0155 5.6863 12.2844 3.00001 8.91549 3.00001C5.54656 3.00001 2.8155 5.6863 2.8155 9.00001C2.8155 12.3137 5.54656 15 8.91549 15Z" fill="#AAAAAA"/>
</svg>
